<svg preserveAspectRatio="none" width="100%" height="100%" overflow="visible" style="display: block;" viewBox="0 0 41.4662 41.4662" fill="none" xmlns="http://www.w3.org/2000/svg">
<g id="Frame 26">
<rect width="41.4662" height="41.4662" rx="5.27752" fill="url(#paint0_linear_0_11)"/>
<path id="Icon" d="M14.9731 20.7331C14.9731 21.7935 14.1135 22.6531 13.0531 22.6531C11.9927 22.6531 11.1331 21.7935 11.1331 20.7331C11.1331 19.6727 11.9927 18.8131 13.0531 18.8131C14.1135 18.8131 14.9731 19.6727 14.9731 20.7331ZM14.9731 20.7331H26.4931M26.4931 20.7331C26.4931 21.7935 27.3527 22.6531 28.4131 22.6531C29.4735 22.6531 30.3331 21.7935 30.3331 20.7331C30.3331 19.6727 29.4735 18.8131 28.4131 18.8131C27.3527 18.8131 26.4931 19.6727 26.4931 20.7331ZM26.4931 13.0531C26.4931 14.1135 27.3527 14.9731 28.4131 14.9731C29.4735 14.9731 30.3331 14.1135 30.3331 13.0531C30.3331 11.9927 29.4735 11.1331 28.4131 11.1331C27.3527 11.1331 26.4931 11.9927 26.4931 13.0531ZM26.4931 13.0531H20.9731C20.4429 13.0531 20.0131 13.4829 20.0131 14.0131V27.4531C20.0131 27.9833 20.4429 28.4131 20.9731 28.4131H26.4931M26.4931 28.4131C26.4931 29.4735 27.3527 30.3331 28.4131 30.3331C29.4735 30.3331 30.3331 29.4735 30.3331 28.4131C30.3331 27.3527 29.4735 26.4931 28.4131 26.4931C27.3527 26.4931 26.4931 27.3527 26.4931 28.4131Z" stroke="var(--stroke-0, white)" stroke-width="2" stroke-linecap="round"/>
</g>
<defs>
<linearGradient id="paint0_linear_0_11" x1="0" y1="0" x2="41.4662" y2="41.4662" gradientUnits="userSpaceOnUse">
<stop stop-color="#DC72FF"/>
<stop offset="1" stop-color="#9D35B2"/>
</linearGradient>
</defs>
</svg>
