<svg preserveAspectRatio="none" width="100%" height="100%" overflow="visible" style="display: block;" viewBox="0 0 41.4662 41.4662" fill="none" xmlns="http://www.w3.org/2000/svg">
<g id="Frame 26">
<rect width="41.4662" height="41.4662" rx="5.27752" fill="url(#paint0_linear_0_34)"/>
<path id="Icon" d="M20.4665 31.2881C14.5761 31.2881 9.8011 26.5625 9.8011 20.7331C9.8011 14.9037 14.5761 10.1781 20.4665 10.1781C24.9424 10.1781 28.7744 12.9068 30.3566 16.775M11.1343 24.6912H14.245C15.4722 24.6912 16.467 23.7067 16.467 22.4923V19.6336C16.467 18.4192 17.4618 17.4347 18.6889 17.4347H20.9109C22.138 17.4347 23.1328 16.4501 23.1328 15.2357V11.4974M27.399 24.9551V24.8757M31.6651 24.8633C31.6651 27.6168 27.399 31.2881 27.399 31.2881C27.399 31.2881 23.1328 27.6168 23.1328 24.8633C23.1328 22.5823 25.0428 20.7331 27.399 20.7331C29.7551 20.7331 31.6651 22.5823 31.6651 24.8633Z" stroke="var(--stroke-0, white)" stroke-width="2.4042" stroke-linecap="round" stroke-linejoin="round"/>
</g>
<defs>
<linearGradient id="paint0_linear_0_34" x1="0" y1="0" x2="41.4662" y2="41.4662" gradientUnits="userSpaceOnUse">
<stop stop-color="#84E0EA"/>
<stop offset="1" stop-color="#31CBDD"/>
</linearGradient>
</defs>
</svg>
