<svg preserveAspectRatio="none" width="100%" height="100%" overflow="visible" style="display: block;" viewBox="0 0 20 20" fill="none" xmlns="http://www.w3.org/2000/svg">
<g id="Frame 22">
<path id="Icon" d="M12.9435 19V9.024C12.9435 8.47171 12.4958 8.024 11.9435 8.024H7.88528C7.333 8.024 6.88528 8.47172 6.88528 9.024V19M12.9435 19L12.9421 14.6803C12.9419 14.1279 13.3897 13.68 13.9421 13.68H18C18.5523 13.68 19 14.1277 19 14.68V18C19 18.5523 18.5523 19 18 19H12.9435ZM12.9435 19H6.88528M6.88528 19V2C6.88528 1.44772 6.43757 1 5.88528 1H2C1.44772 1 1 1.44772 1 2V18C1 18.5523 1.44771 19 2 19H6.88528Z" stroke="var(--stroke-0, #A200FF)" stroke-width="2" stroke-linecap="round" stroke-linejoin="round"/>
</g>
</svg>
