<svg preserveAspectRatio="none" width="100%" height="100%" overflow="visible" style="display: block;" viewBox="0 0 33.1707 33.1707" fill="none" xmlns="http://www.w3.org/2000/svg">
<path id="Icon" d="M16.5854 31.5122C24.8292 31.5122 31.5122 24.8292 31.5122 16.5854C31.5122 8.34151 24.8292 1.65854 16.5854 1.65854M16.5854 31.5122C8.34151 31.5122 1.65854 24.8292 1.65854 16.5854C1.65854 8.34151 8.34151 1.65854 16.5854 1.65854M16.5854 31.5122C12.9787 31.5122 10.0549 24.8292 10.0549 16.5854C10.0549 8.34151 12.9787 1.65854 16.5854 1.65854M16.5854 31.5122C20.1921 31.5122 23.1159 24.8292 23.1159 16.5854C23.1159 8.34151 20.1921 1.65854 16.5854 1.65854M4.45732 23.8405C7.19195 22.2746 11.7354 21.25 16.8779 21.25C22.245 21.25 26.9596 22.366 29.6463 24.0488M4.45732 9.33023C7.19195 10.8962 11.7354 11.9207 16.8779 11.9207C22.245 11.9207 26.9596 10.8047 29.6463 9.12195" stroke="var(--stroke-0, black)" stroke-width="3.31707"/>
</svg>
